<svg xmlns="http://www.w3.org/2000/svg" width="375" viewBox="0 0 375 375" height="375" version="1.0"><path fill="#E42A2A" d="M 272.503906 171.210938 C 244.335938 171.210938 221.503906 194.046875 221.503906 222.210938 C 221.503906 250.378906 244.335938 273.210938 272.503906 273.210938 C 300.671875 273.210938 323.503906 250.378906 323.503906 222.210938 C 323.503906 194.046875 300.671875 171.210938 272.503906 171.210938"/><g><g><g><path d="M 28.125 -38.875 C 28.125 -38.5625 28.003906 -38.285156 27.765625 -38.046875 C 27.523438 -37.804688 27.25 -37.6875 26.9375 -37.6875 L 17.015625 -37.6875 C 16.503906 -37.6875 16.25 -37.425781 16.25 -36.90625 L 16.25 -1.671875 C 16.25 -1.117188 16.054688 -0.648438 15.671875 -0.265625 C 15.296875 0.109375 14.828125 0.296875 14.265625 0.296875 C 13.710938 0.296875 13.253906 0.109375 12.890625 -0.265625 C 12.535156 -0.648438 12.359375 -1.117188 12.359375 -1.671875 L 12.359375 -36.90625 C 12.359375 -37.425781 12.082031 -37.6875 11.53125 -37.6875 L 1.671875 -37.6875 C 1.347656 -37.6875 1.066406 -37.804688 0.828125 -38.046875 C 0.597656 -38.285156 0.484375 -38.5625 0.484375 -38.875 C 0.484375 -39.195312 0.597656 -39.46875 0.828125 -39.6875 C 1.066406 -39.90625 1.347656 -40.015625 1.671875 -40.015625 L 26.9375 -40.015625 C 27.25 -40.015625 27.523438 -39.90625 27.765625 -39.6875 C 28.003906 -39.46875 28.125 -39.195312 28.125 -38.875 Z M 28.125 -38.875" transform="translate(37.5 178.436)"/></g></g></g><g><g><g><path d="M 27.53125 -1.4375 C 27.53125 -1 27.359375 -0.609375 27.015625 -0.265625 C 26.679688 0.0664062 26.273438 0.234375 25.796875 0.234375 C 25.316406 0.234375 24.90625 0.0664062 24.5625 -0.265625 C 24.226562 -0.609375 24.0625 -1 24.0625 -1.4375 L 24.0625 -14.9375 C 24.0625 -15.375 23.820312 -15.59375 23.34375 -15.59375 L 6.875 -15.59375 C 6.394531 -15.59375 6.15625 -15.351562 6.15625 -14.875 L 6.15625 -1.4375 C 6.15625 -1 5.984375 -0.609375 5.640625 -0.265625 C 5.304688 0.0664062 4.898438 0.234375 4.421875 0.234375 C 3.941406 0.234375 3.53125 0.0664062 3.1875 -0.265625 C 2.851562 -0.609375 2.6875 -1 2.6875 -1.4375 L 2.6875 -47.53125 C 2.6875 -48.007812 2.851562 -48.414062 3.1875 -48.75 C 3.53125 -49.09375 3.941406 -49.265625 4.421875 -49.265625 C 4.898438 -49.265625 5.304688 -49.09375 5.640625 -48.75 C 5.984375 -48.414062 6.15625 -48.007812 6.15625 -47.53125 L 6.15625 -18.15625 C 6.15625 -17.675781 6.375 -17.4375 6.8125 -17.4375 L 23.34375 -17.4375 C 23.820312 -17.4375 24.0625 -17.632812 24.0625 -18.03125 L 24.0625 -29.921875 C 24.0625 -30.398438 24.226562 -30.804688 24.5625 -31.140625 C 24.90625 -31.484375 25.316406 -31.65625 25.796875 -31.65625 C 26.273438 -31.65625 26.679688 -31.484375 27.015625 -31.140625 C 27.359375 -30.804688 27.53125 -30.398438 27.53125 -29.921875 Z M 27.53125 -1.4375" transform="translate(63.773 178.436)"/></g></g></g><g><g><g><path d="M 21.203125 -0.890625 C 21.203125 -0.648438 21.117188 -0.441406 20.953125 -0.265625 C 20.796875 -0.0859375 20.578125 0 20.296875 0 L 8.84375 0 C 6.570312 0 4.976562 -0.457031 4.0625 -1.375 C 3.144531 -2.289062 2.6875 -3.882812 2.6875 -6.15625 L 2.6875 -25.265625 C 2.6875 -27.535156 3.144531 -29.125 4.0625 -30.03125 C 4.976562 -30.945312 6.570312 -31.40625 8.84375 -31.40625 L 20.296875 -31.40625 C 20.898438 -31.40625 21.203125 -31.085938 21.203125 -30.453125 C 21.203125 -30.210938 21.117188 -30.003906 20.953125 -29.828125 C 20.796875 -29.648438 20.578125 -29.5625 20.296875 -29.5625 L 9.671875 -29.5625 C 7.328125 -29.5625 6.15625 -28.382812 6.15625 -26.03125 L 6.15625 -18.09375 C 6.15625 -17.65625 6.394531 -17.4375 6.875 -17.4375 L 20.296875 -17.4375 C 20.535156 -17.4375 20.742188 -17.347656 20.921875 -17.171875 C 21.109375 -16.992188 21.203125 -16.765625 21.203125 -16.484375 C 21.203125 -16.242188 21.109375 -16.035156 20.921875 -15.859375 C 20.742188 -15.679688 20.535156 -15.59375 20.296875 -15.59375 L 6.875 -15.59375 C 6.394531 -15.59375 6.15625 -15.351562 6.15625 -14.875 L 6.15625 -5.375 C 6.15625 -4.21875 6.453125 -3.332031 7.046875 -2.71875 C 7.640625 -2.101562 8.515625 -1.796875 9.671875 -1.796875 L 20.296875 -1.796875 C 20.898438 -1.796875 21.203125 -1.492188 21.203125 -0.890625 Z M 21.203125 -0.890625" transform="translate(91.66 178.436)"/></g></g></g><g><g><g><path d="M 43.234375 -20.0625 C 43.234375 -17 42.734375 -14.171875 41.734375 -11.578125 C 40.742188 -8.992188 39.351562 -6.765625 37.5625 -4.890625 C 35.769531 -3.023438 33.609375 -1.5625 31.078125 -0.5 C 28.554688 0.550781 25.742188 1.078125 22.640625 1.078125 C 19.523438 1.078125 16.691406 0.550781 14.140625 -0.5 C 11.597656 -1.5625 9.429688 -3.023438 7.640625 -4.890625 C 5.847656 -6.765625 4.453125 -8.992188 3.453125 -11.578125 C 2.460938 -14.171875 1.96875 -17 1.96875 -20.0625 C 1.96875 -23.007812 2.484375 -25.765625 3.515625 -28.328125 C 4.554688 -30.898438 5.988281 -33.128906 7.8125 -35.015625 C 9.644531 -36.910156 11.828125 -38.40625 14.359375 -39.5 C 16.890625 -40.59375 19.648438 -41.140625 22.640625 -41.140625 C 25.617188 -41.140625 28.363281 -40.59375 30.875 -39.5 C 33.382812 -38.40625 35.550781 -36.910156 37.375 -35.015625 C 39.207031 -33.128906 40.640625 -30.898438 41.671875 -28.328125 C 42.710938 -25.765625 43.234375 -23.007812 43.234375 -20.0625 Z M 38.640625 -20.1875 C 38.640625 -22.613281 38.300781 -24.953125 37.625 -27.203125 C 36.945312 -29.453125 35.941406 -31.441406 34.609375 -33.171875 C 33.273438 -34.898438 31.601562 -36.289062 29.59375 -37.34375 C 27.582031 -38.40625 25.265625 -38.9375 22.640625 -38.9375 C 20.003906 -38.9375 17.679688 -38.40625 15.671875 -37.34375 C 13.660156 -36.289062 11.988281 -34.898438 10.65625 -33.171875 C 9.320312 -31.441406 8.316406 -29.453125 7.640625 -27.203125 C 6.960938 -24.953125 6.625 -22.613281 6.625 -20.1875 C 6.625 -17.675781 6.941406 -15.296875 7.578125 -13.046875 C 8.222656 -10.796875 9.203125 -8.8125 10.515625 -7.09375 C 11.828125 -5.382812 13.488281 -4.023438 15.5 -3.015625 C 17.507812 -2.003906 19.890625 -1.5 22.640625 -1.5 C 25.335938 -1.5 27.691406 -2.003906 29.703125 -3.015625 C 31.710938 -4.023438 33.375 -5.382812 34.6875 -7.09375 C 36.007812 -8.8125 37 -10.796875 37.65625 -13.046875 C 38.3125 -15.296875 38.640625 -17.675781 38.640625 -20.1875 Z M 38.640625 -20.1875" transform="translate(37.5 242.198)"/></g></g></g><g><g><g><path d="M 29.734375 -15.703125 C 29.734375 -13.359375 29.34375 -11.21875 28.5625 -9.28125 C 27.789062 -7.351562 26.6875 -5.703125 25.25 -4.328125 C 23.820312 -2.953125 22.113281 -1.882812 20.125 -1.125 C 18.132812 -0.375 15.925781 0 13.5 0 L 4.421875 0 C 3.941406 0 3.53125 -0.164062 3.1875 -0.5 C 2.851562 -0.84375 2.6875 -1.253906 2.6875 -1.734375 L 2.6875 -47.53125 C 2.6875 -48.007812 2.851562 -48.414062 3.1875 -48.75 C 3.53125 -49.09375 3.941406 -49.265625 4.421875 -49.265625 C 4.898438 -49.265625 5.304688 -49.09375 5.640625 -48.75 C 5.984375 -48.414062 6.15625 -48.007812 6.15625 -47.53125 L 6.15625 -32.125 C 6.15625 -31.644531 6.394531 -31.40625 6.875 -31.40625 L 13.5 -31.40625 C 15.925781 -31.40625 18.132812 -31.023438 20.125 -30.265625 C 22.113281 -29.515625 23.820312 -28.453125 25.25 -27.078125 C 26.6875 -25.703125 27.789062 -24.050781 28.5625 -22.125 C 29.34375 -20.195312 29.734375 -18.054688 29.734375 -15.703125 Z M 25.796875 -15.703125 C 25.796875 -17.773438 25.492188 -19.664062 24.890625 -21.375 C 24.296875 -23.09375 23.460938 -24.554688 22.390625 -25.765625 C 21.316406 -26.984375 20.023438 -27.921875 18.515625 -28.578125 C 17.003906 -29.234375 15.332031 -29.5625 13.5 -29.5625 L 6.875 -29.5625 C 6.394531 -29.5625 6.15625 -29.320312 6.15625 -28.84375 L 6.15625 -3.46875 C 6.15625 -2.382812 6.691406 -1.84375 7.765625 -1.84375 L 13.5 -1.84375 C 15.332031 -1.84375 17.003906 -2.171875 18.515625 -2.828125 C 20.023438 -3.492188 21.316406 -4.429688 22.390625 -5.640625 C 23.460938 -6.859375 24.296875 -8.320312 24.890625 -10.03125 C 25.492188 -11.738281 25.796875 -13.628906 25.796875 -15.703125 Z M 25.796875 -15.703125" transform="translate(80.374 242.198)"/></g></g></g><g><g><g><path d="M 20.96875 -8.359375 C 20.96875 -7.203125 20.753906 -6.113281 20.328125 -5.09375 C 19.910156 -4.082031 19.285156 -3.195312 18.453125 -2.4375 C 17.617188 -1.6875 16.59375 -1.09375 15.375 -0.65625 C 14.164062 -0.21875 12.765625 0 11.171875 0 L 2.453125 0 C 2.210938 0 2 -0.0859375 1.8125 -0.265625 C 1.632812 -0.441406 1.546875 -0.648438 1.546875 -0.890625 C 1.546875 -1.171875 1.632812 -1.398438 1.8125 -1.578125 C 2 -1.753906 2.210938 -1.84375 2.453125 -1.84375 L 10.8125 -1.84375 C 12.800781 -1.84375 14.34375 -2.34375 15.4375 -3.34375 C 16.53125 -4.34375 17.078125 -5.675781 17.078125 -7.34375 C 17.078125 -8.414062 16.894531 -9.3125 16.53125 -10.03125 C 16.175781 -10.75 15.691406 -11.375 15.078125 -11.90625 C 14.460938 -12.445312 13.753906 -12.90625 12.953125 -13.28125 C 12.160156 -13.664062 11.328125 -14.054688 10.453125 -14.453125 L 8.59375 -15.28125 C 6.125 -16.394531 4.320312 -17.628906 3.1875 -18.984375 C 2.0625 -20.335938 1.5 -21.992188 1.5 -23.953125 C 1.5 -26.140625 2.273438 -27.925781 3.828125 -29.3125 C 5.378906 -30.707031 7.523438 -31.40625 10.265625 -31.40625 L 18.984375 -31.40625 C 19.222656 -31.40625 19.429688 -31.316406 19.609375 -31.140625 C 19.796875 -30.960938 19.890625 -30.734375 19.890625 -30.453125 C 19.890625 -30.210938 19.796875 -30.003906 19.609375 -29.828125 C 19.429688 -29.648438 19.222656 -29.5625 18.984375 -29.5625 L 10.984375 -29.5625 C 9.316406 -29.5625 7.960938 -29.171875 6.921875 -28.390625 C 5.890625 -27.617188 5.375 -26.476562 5.375 -24.96875 C 5.375 -24.007812 5.570312 -23.191406 5.96875 -22.515625 C 6.363281 -21.835938 6.859375 -21.25 7.453125 -20.75 C 8.054688 -20.25 8.722656 -19.820312 9.453125 -19.46875 C 10.191406 -19.113281 10.898438 -18.796875 11.578125 -18.515625 L 13.859375 -17.5 C 16.328125 -16.382812 18.128906 -15.140625 19.265625 -13.765625 C 20.398438 -12.390625 20.96875 -10.585938 20.96875 -8.359375 Z M 20.96875 -8.359375" transform="translate(109.275 242.198)"/></g></g></g><g><g><g><path d="M 21.203125 -0.890625 C 21.203125 -0.648438 21.117188 -0.441406 20.953125 -0.265625 C 20.796875 -0.0859375 20.578125 0 20.296875 0 L 8.84375 0 C 6.570312 0 4.976562 -0.457031 4.0625 -1.375 C 3.144531 -2.289062 2.6875 -3.882812 2.6875 -6.15625 L 2.6875 -25.265625 C 2.6875 -27.535156 3.144531 -29.125 4.0625 -30.03125 C 4.976562 -30.945312 6.570312 -31.40625 8.84375 -31.40625 L 20.296875 -31.40625 C 20.898438 -31.40625 21.203125 -31.085938 21.203125 -30.453125 C 21.203125 -30.210938 21.117188 -30.003906 20.953125 -29.828125 C 20.796875 -29.648438 20.578125 -29.5625 20.296875 -29.5625 L 9.671875 -29.5625 C 7.328125 -29.5625 6.15625 -28.382812 6.15625 -26.03125 L 6.15625 -18.09375 C 6.15625 -17.65625 6.394531 -17.4375 6.875 -17.4375 L 20.296875 -17.4375 C 20.535156 -17.4375 20.742188 -17.347656 20.921875 -17.171875 C 21.109375 -16.992188 21.203125 -16.765625 21.203125 -16.484375 C 21.203125 -16.242188 21.109375 -16.035156 20.921875 -15.859375 C 20.742188 -15.679688 20.535156 -15.59375 20.296875 -15.59375 L 6.875 -15.59375 C 6.394531 -15.59375 6.15625 -15.351562 6.15625 -14.875 L 6.15625 -5.375 C 6.15625 -4.21875 6.453125 -3.332031 7.046875 -2.71875 C 7.640625 -2.101562 8.515625 -1.796875 9.671875 -1.796875 L 20.296875 -1.796875 C 20.898438 -1.796875 21.203125 -1.492188 21.203125 -0.890625 Z M 21.203125 -0.890625" transform="translate(129.278 242.198)"/></g></g></g><g><g><g><path d="M 24.125 -1.5 C 24.125 -0.976562 23.972656 -0.554688 23.671875 -0.234375 C 23.378906 0.078125 22.953125 0.234375 22.390625 0.234375 C 22.148438 0.234375 21.910156 0.179688 21.671875 0.078125 C 21.429688 -0.015625 21.210938 -0.179688 21.015625 -0.421875 L 9.90625 -14.328125 C 9.4375 -14.929688 9.203125 -15.488281 9.203125 -16 C 9.203125 -16.195312 9.21875 -16.359375 9.25 -16.484375 C 9.332031 -16.796875 9.515625 -17.019531 9.796875 -17.15625 C 10.078125 -17.300781 10.375 -17.375 10.6875 -17.375 L 11.46875 -17.375 C 16.71875 -17.375 19.34375 -19.40625 19.34375 -23.46875 C 19.34375 -27.53125 16.71875 -29.5625 11.46875 -29.5625 L 7.765625 -29.5625 C 6.691406 -29.5625 6.15625 -29.023438 6.15625 -27.953125 L 6.15625 -1.5 C 6.15625 -1.019531 5.984375 -0.609375 5.640625 -0.265625 C 5.304688 0.0664062 4.898438 0.234375 4.421875 0.234375 C 3.941406 0.234375 3.53125 0.0664062 3.1875 -0.265625 C 2.851562 -0.609375 2.6875 -1.019531 2.6875 -1.5 L 2.6875 -29.6875 C 2.6875 -30.15625 2.851562 -30.554688 3.1875 -30.890625 C 3.53125 -31.234375 3.941406 -31.40625 4.421875 -31.40625 L 12.125 -31.40625 C 15.988281 -31.40625 18.785156 -30.660156 20.515625 -29.171875 C 22.242188 -27.679688 23.109375 -25.78125 23.109375 -23.46875 C 23.109375 -21.28125 22.332031 -19.46875 20.78125 -18.03125 C 19.226562 -16.601562 16.71875 -15.804688 13.25 -15.640625 L 23.765625 -2.515625 C 24.003906 -2.191406 24.125 -1.851562 24.125 -1.5 Z M 24.125 -1.5" transform="translate(149.76 242.198)"/></g></g></g><g><g><g><path d="M 27.34375 -30.703125 C 27.34375 -30.617188 27.332031 -30.535156 27.3125 -30.453125 C 27.300781 -30.378906 27.296875 -30.300781 27.296875 -30.21875 C 25.859375 -26.675781 24.601562 -23.539062 23.53125 -20.8125 C 22.457031 -18.082031 21.519531 -15.703125 20.71875 -13.671875 C 19.925781 -11.640625 19.25 -9.914062 18.6875 -8.5 C 18.132812 -7.09375 17.675781 -5.929688 17.3125 -5.015625 C 16.4375 -2.828125 15.921875 -1.535156 15.765625 -1.140625 C 15.609375 -0.734375 15.367188 -0.351562 15.046875 0 C 14.734375 0.351562 14.273438 0.53125 13.671875 0.53125 C 13.117188 0.53125 12.679688 0.351562 12.359375 0 C 12.046875 -0.351562 11.804688 -0.710938 11.640625 -1.078125 C 11.484375 -1.472656 10.988281 -2.742188 10.15625 -4.890625 C 9.789062 -5.804688 9.335938 -6.941406 8.796875 -8.296875 C 8.265625 -9.648438 7.609375 -11.3125 6.828125 -13.28125 C 6.054688 -15.257812 5.148438 -17.5625 4.109375 -20.1875 C 3.078125 -22.8125 1.882812 -25.835938 0.53125 -29.265625 C 0.457031 -29.503906 0.421875 -29.722656 0.421875 -29.921875 C 0.421875 -30.441406 0.597656 -30.859375 0.953125 -31.171875 C 1.316406 -31.492188 1.71875 -31.65625 2.15625 -31.65625 C 2.90625 -31.65625 3.421875 -31.296875 3.703125 -30.578125 L 14.09375 -4.1875 C 14.175781 -3.976562 14.296875 -3.875 14.453125 -3.875 C 14.648438 -3.875 14.789062 -3.976562 14.875 -4.1875 L 25.4375 -31.046875 C 25.59375 -31.453125 25.894531 -31.65625 26.34375 -31.65625 C 27.007812 -31.65625 27.34375 -31.335938 27.34375 -30.703125 Z M 27.34375 -30.703125" transform="translate(172.749 242.198)"/></g></g></g><g><g><g><path d="M 28.1875 -1.5 C 28.1875 -1.019531 28.035156 -0.609375 27.734375 -0.265625 C 27.441406 0.0664062 27.015625 0.234375 26.453125 0.234375 C 25.703125 0.234375 25.1875 -0.101562 24.90625 -0.78125 L 21.671875 -8.65625 C 21.472656 -9.132812 21.132812 -9.375 20.65625 -9.375 L 6.921875 -9.375 C 6.441406 -9.375 6.101562 -9.132812 5.90625 -8.65625 L 2.515625 -0.359375 C 2.347656 0.0351562 2.046875 0.234375 1.609375 0.234375 C 0.929688 0.234375 0.59375 -0.0820312 0.59375 -0.71875 C 0.59375 -0.914062 0.613281 -1.054688 0.65625 -1.140625 L 12.484375 -30.28125 C 12.640625 -30.675781 12.882812 -31.050781 13.21875 -31.40625 C 13.5625 -31.769531 14.015625 -31.953125 14.578125 -31.953125 C 15.128906 -31.953125 15.5625 -31.769531 15.875 -31.40625 C 16.195312 -31.050781 16.441406 -30.695312 16.609375 -30.34375 L 28.0625 -2.15625 C 28.144531 -1.914062 28.1875 -1.695312 28.1875 -1.5 Z M 20.421875 -11.640625 C 20.421875 -11.722656 20.378906 -11.84375 20.296875 -12 L 14.15625 -27.171875 C 14.070312 -27.410156 13.953125 -27.53125 13.796875 -27.53125 C 13.554688 -27.53125 13.414062 -27.410156 13.375 -27.171875 L 7.21875 -12 C 7.1875 -11.925781 7.171875 -11.804688 7.171875 -11.640625 C 7.171875 -11.367188 7.347656 -11.234375 7.703125 -11.234375 L 19.890625 -11.234375 C 20.242188 -11.234375 20.421875 -11.367188 20.421875 -11.640625 Z M 20.421875 -11.640625" transform="translate(198.186 242.198)"/></g></g></g><g><g><g><path d="M 23.296875 -30.453125 C 23.296875 -30.210938 23.203125 -30.003906 23.015625 -29.828125 C 22.835938 -29.648438 22.628906 -29.5625 22.390625 -29.5625 L 14.515625 -29.5625 C 14.035156 -29.5625 13.796875 -29.320312 13.796875 -28.84375 L 13.796875 -1.4375 C 13.796875 -0.957031 13.625 -0.554688 13.28125 -0.234375 C 12.945312 0.078125 12.539062 0.234375 12.0625 0.234375 C 11.582031 0.234375 11.171875 0.078125 10.828125 -0.234375 C 10.492188 -0.554688 10.328125 -0.957031 10.328125 -1.4375 L 10.328125 -28.84375 C 10.328125 -29.320312 10.085938 -29.5625 9.609375 -29.5625 L 1.671875 -29.5625 C 1.429688 -29.5625 1.222656 -29.648438 1.046875 -29.828125 C 0.867188 -30.003906 0.78125 -30.210938 0.78125 -30.453125 C 0.78125 -30.734375 0.867188 -30.953125 1.046875 -31.109375 C 1.222656 -31.273438 1.429688 -31.359375 1.671875 -31.359375 L 22.390625 -31.359375 C 22.628906 -31.359375 22.835938 -31.273438 23.015625 -31.109375 C 23.203125 -30.953125 23.296875 -30.734375 23.296875 -30.453125 Z M 23.296875 -30.453125" transform="translate(224.639 242.198)"/></g></g></g><g><g><g><path d="M 7.640625 -42.21875 C 7.640625 -41.5 7.390625 -40.878906 6.890625 -40.359375 C 6.398438 -39.847656 5.796875 -39.59375 5.078125 -39.59375 C 4.359375 -39.59375 3.738281 -39.847656 3.21875 -40.359375 C 2.707031 -40.878906 2.453125 -41.5 2.453125 -42.21875 C 2.453125 -42.9375 2.707031 -43.546875 3.21875 -44.046875 C 3.738281 -44.546875 4.359375 -44.796875 5.078125 -44.796875 C 5.796875 -44.796875 6.398438 -44.546875 6.890625 -44.046875 C 7.390625 -43.546875 7.640625 -42.9375 7.640625 -42.21875 Z M 6.8125 -1.5 C 6.8125 -1.019531 6.640625 -0.609375 6.296875 -0.265625 C 5.960938 0.0664062 5.554688 0.234375 5.078125 0.234375 C 4.597656 0.234375 4.1875 0.0664062 3.84375 -0.265625 C 3.507812 -0.609375 3.34375 -1.019531 3.34375 -1.5 L 3.34375 -29.921875 C 3.34375 -30.398438 3.507812 -30.804688 3.84375 -31.140625 C 4.1875 -31.484375 4.597656 -31.65625 5.078125 -31.65625 C 5.554688 -31.65625 5.960938 -31.484375 6.296875 -31.140625 C 6.640625 -30.804688 6.8125 -30.398438 6.8125 -29.921875 Z M 6.8125 -1.5" transform="translate(246.374 242.198)"/></g></g></g><g><g><g><path d="M 33.5 -15.640625 C 33.5 -13.210938 33.109375 -10.992188 32.328125 -8.984375 C 31.554688 -6.972656 30.472656 -5.25 29.078125 -3.8125 C 27.691406 -2.382812 26.019531 -1.269531 24.0625 -0.46875 C 22.113281 0.320312 19.945312 0.71875 17.5625 0.71875 C 15.164062 0.71875 12.992188 0.320312 11.046875 -0.46875 C 9.097656 -1.269531 7.414062 -2.382812 6 -3.8125 C 4.582031 -5.25 3.492188 -6.972656 2.734375 -8.984375 C 1.984375 -10.992188 1.609375 -13.210938 1.609375 -15.640625 C 1.609375 -18.078125 1.984375 -20.300781 2.734375 -22.3125 C 3.492188 -24.320312 4.582031 -26.039062 6 -27.46875 C 7.414062 -28.90625 9.097656 -30.019531 11.046875 -30.8125 C 12.992188 -31.613281 15.164062 -32.015625 17.5625 -32.015625 C 19.945312 -32.015625 22.113281 -31.613281 24.0625 -30.8125 C 26.019531 -30.019531 27.691406 -28.90625 29.078125 -27.46875 C 30.472656 -26.039062 31.554688 -24.320312 32.328125 -22.3125 C 33.109375 -20.300781 33.5 -18.078125 33.5 -15.640625 Z M 29.5625 -15.640625 C 29.5625 -17.835938 29.269531 -19.832031 28.6875 -21.625 C 28.113281 -23.414062 27.296875 -24.957031 26.234375 -26.25 C 25.179688 -27.539062 23.921875 -28.535156 22.453125 -29.234375 C 20.984375 -29.929688 19.351562 -30.28125 17.5625 -30.28125 C 15.769531 -30.28125 14.125 -29.929688 12.625 -29.234375 C 11.132812 -28.535156 9.859375 -27.539062 8.796875 -26.25 C 7.742188 -24.957031 6.929688 -23.414062 6.359375 -21.625 C 5.785156 -19.832031 5.5 -17.835938 5.5 -15.640625 C 5.5 -13.453125 5.785156 -11.460938 6.359375 -9.671875 C 6.929688 -7.878906 7.742188 -6.335938 8.796875 -5.046875 C 9.859375 -3.753906 11.132812 -2.757812 12.625 -2.0625 C 14.125 -1.363281 15.769531 -1.015625 17.5625 -1.015625 C 19.351562 -1.015625 20.984375 -1.363281 22.453125 -2.0625 C 23.921875 -2.757812 25.179688 -3.753906 26.234375 -5.046875 C 27.296875 -6.335938 28.113281 -7.878906 28.6875 -9.671875 C 29.269531 -11.460938 29.5625 -13.453125 29.5625 -15.640625 Z M 29.5625 -15.640625" transform="translate(254.136 242.198)"/></g></g></g><g><g><g><path d="M 28.1875 -2.15625 C 28.1875 -1.476562 27.976562 -0.910156 27.5625 -0.453125 C 27.144531 0.00390625 26.597656 0.234375 25.921875 0.234375 C 25.117188 0.234375 24.507812 0.0351562 24.09375 -0.359375 C 23.675781 -0.753906 23.289062 -1.210938 22.9375 -1.734375 L 5.609375 -26.75 C 5.453125 -26.988281 5.296875 -27.109375 5.140625 -27.109375 C 4.859375 -27.109375 4.71875 -26.910156 4.71875 -26.515625 L 4.71875 -0.71875 C 4.71875 -0.4375 4.617188 -0.207031 4.421875 -0.03125 C 4.222656 0.144531 3.984375 0.234375 3.703125 0.234375 C 3.421875 0.234375 3.179688 0.144531 2.984375 -0.03125 C 2.785156 -0.207031 2.6875 -0.4375 2.6875 -0.71875 L 2.6875 -29.203125 C 2.6875 -29.921875 2.894531 -30.507812 3.3125 -30.96875 C 3.726562 -31.425781 4.273438 -31.65625 4.953125 -31.65625 C 5.753906 -31.65625 6.375 -31.441406 6.8125 -31.015625 C 7.25 -30.597656 7.625 -30.15625 7.9375 -29.6875 L 25.328125 -4.59375 C 25.484375 -4.351562 25.640625 -4.234375 25.796875 -4.234375 C 25.953125 -4.234375 26.0625 -4.289062 26.125 -4.40625 C 26.1875 -4.53125 26.21875 -4.65625 26.21875 -4.78125 L 26.21875 -30.640625 C 26.21875 -30.910156 26.304688 -31.144531 26.484375 -31.34375 C 26.660156 -31.550781 26.890625 -31.65625 27.171875 -31.65625 C 27.492188 -31.65625 27.742188 -31.550781 27.921875 -31.34375 C 28.097656 -31.144531 28.1875 -30.910156 28.1875 -30.640625 Z M 28.1875 -2.15625" transform="translate(286.919 242.198)"/></g></g></g></svg>